<svg id="Layer_1" data-name="Layer 1" xmlns="http://www.w3.org/2000/svg" viewBox="0 0 75.61 65.23"><defs><style>.cls-1{fill:#d45c33;}</style></defs><title>ingredients</title><path class="cls-1" d="M71.14,34.83a14.18,14.18,0,0,1,.21,8.4,46.49,46.49,0,0,0-2.57-6.3C67.84,35,66.72,32.7,65,31.31c1.57-1.15,1.94-3.57,1.31-5.63a4.8,4.8,0,0,0-5.42-3.31l-.25.05c-.3-1.12-1.38-2.62-2.64-1.86-1.08.64-.61,2.32,0,3.17a5.31,5.31,0,0,0-1.73,4.38c.27,3.47,3.25,4.64,6.34,4.09.57,1.06,1.41,2,2,3a29,29,0,0,1,1.65,3.18c.19.43.37.88.55,1.32a7.49,7.49,0,0,1-3.63-.12,4.79,4.79,0,0,0-4.45-4.79A5,5,0,0,0,55,36.31c-.78-.68-2.23-1.05-2.7.11A1.5,1.5,0,0,0,52.67,38a4.15,4.15,0,0,0,1,.83c0,.12,0,.24,0,.36-.21,2.4,1.1,5.26,3.69,5.76,1.85.35,4.26.24,5.45-2.34a10.3,10.3,0,0,0,5.08-.22,29.27,29.27,0,0,1,.86,3.18c1,4.94,1.13,10.19-1,14.85a.59.59,0,0,0,.39.82c.18.39.87.53,1.26.57a1.78,1.78,0,0,0,.65,0l.19-.07a.44.44,0,0,0,.57-.19c1.41-2.13,1.71-4.93,1.92-7.42,0-.12,0-.25,0-.37,7.14.52,10.26-7.38,11-13.26a23.54,23.54,0,0,0-2-12.7A36.3,36.3,0,0,0,77.88,21c-1.44-1.95-3.23-3.78-3.2-6.36a.57.57,0,0,0,0-.18h0a.32.32,0,0,0-.42-.21c-4.51,1.6-5.89,7.84-5.39,12A46.85,46.85,0,0,0,71.14,34.83Zm1.11,11.74c.43-.52.73-1.15,1.16-1.68s.74-.9,1.08-1.37a9,9,0,0,0,1.59-3.66,22.19,22.19,0,0,0-.48-9.1c-.59-2.66-1.33-5.29-1.86-8-.43-2.22-.91-4.91.15-7a7.62,7.62,0,0,0,1.67,3.78,50.16,50.16,0,0,1,3.83,5.84c2.23,4.15,3.8,8.68,3.44,13.45-.43,5.67-3,14.33-10.09,13.85A26.73,26.73,0,0,0,72.25,46.57ZM54.51,36.85a4.21,4.21,0,0,0-.56,1c-.46-.27-1-.59-.91-1.06C53.1,36.19,54,36.56,54.51,36.85Zm7.89,2.5c-.52-.17-1-.38-1.6-.6a.39.39,0,0,0-.28,0,.45.45,0,0,0-.39.3,6.7,6.7,0,0,0-.24.76,1.78,1.78,0,0,0-.15.71.54.54,0,0,0,.08.21.31.31,0,0,0,0,.12,3.7,3.7,0,0,0,2,1.51c-.8,1.62-3.12,2.13-4.77,1.51A4.33,4.33,0,0,1,54.58,39a4,4,0,0,1,4.21-3.26A4.13,4.13,0,0,1,62.4,39.35Zm4.76,1.09c.12.32.24.63.35,1-2.05.7-5.1.51-6.83-.85a2.74,2.74,0,0,0,.18-.71C62.74,40.71,65.26,41.45,67.16,40.44ZM59.91,22.61a5.25,5.25,0,0,0-1,.5c-.28-.46-1-1.54-.44-1.81S59.69,22,59.91,22.61Zm3,8.57a.54.54,0,0,0-.29,0c-1.45.24-3.29.33-4.38-.89a3.94,3.94,0,0,1-.77-3.46,4.26,4.26,0,0,1,3.88-3.5,3.78,3.78,0,0,1,4.16,2.95,5,5,0,0,1-.29,3.59C64.59,30.71,63.69,30.79,62.86,31.18ZM70,60.85h0c-.17,0-.33-.08-.5-.12s-.43-.14-.64-.2c2.1-4.77,2.08-10.21,1-15.24A32.32,32.32,0,0,0,67,37.46a20.47,20.47,0,0,0-3.62-5.53,3.3,3.3,0,0,0,.91-.25c.68,1,1.47,1.92,2.08,3a31.57,31.57,0,0,1,1.64,3.23,48.62,48.62,0,0,1,2.79,7.56A24.89,24.89,0,0,1,70,60.85Zm.4-31.62C69.3,24.87,69.49,19,73.13,15.86a10.52,10.52,0,0,0-.39,5.54c.31,2.46,1,4.89,1.5,7.31.78,3.35,1.59,7,.92,10.42a10.16,10.16,0,0,1-2.24,4.71,14.6,14.6,0,0,0-1,1.28c0-.12-.06-.24-.1-.36C74.48,39.54,71.76,34.38,70.42,29.23Z" transform="translate(-8.26 -6)"/><path class="cls-1" d="M45.58,21.56a4.52,4.52,0,0,0,.24-.84c1.44-3.83-2.78-6.9-5.79-8.45-2.16-1.12-4.32-2.15-5.9-4.08a5,5,0,0,0-4.74-2.14c-2,.29-3.75,2.11-4.72,3.72a13.48,13.48,0,0,0-1.11,2.73,8.78,8.78,0,0,1-2.35,3.69c-1.53,1.5-2.92,2.84-3.56,4.95a9.42,9.42,0,0,0,.52,5.9.4.4,0,0,0,.17.23,3.48,3.48,0,0,0,.24.89,21.62,21.62,0,0,0-4.08,4.78A36.78,36.78,0,0,1,11,37.31a10.39,10.39,0,0,0-2.52,3.61c-.91,2.71,1.42,4.2,3.86,4.07a13.37,13.37,0,0,0,3.36-.77,10.93,10.93,0,0,0-1.1,3.37.36.36,0,0,0,.45.34,2,2,0,0,0,.54-.19,28.2,28.2,0,0,0-.64,10.93c.48,2.66,1.78,5.91,4.72,6.57A3.27,3.27,0,0,0,23,63.84l.08-.12.15,0c3.13.38,4-3.13,4.06-5.5a30.88,30.88,0,0,1,.23-4.9,30.85,30.85,0,0,1,2.41-7c.07-.15.14-.3.22-.45a2.43,2.43,0,0,0,1.39-2.64c.49-.91,1-1.81,1.41-2.75a24.86,24.86,0,0,0,1.83-6.26,30.19,30.19,0,0,0,.32-6.51c0-.5,0-1-.1-1.53C38.74,25.84,43.87,25.73,45.58,21.56Zm-8.15-9.5.63.34,1.8.95a1.88,1.88,0,0,1-2,.65C37,13.71,37.14,12.72,37.43,12.06ZM26.58,9c.75,1-.39,3.45-1.61,2.63A8.9,8.9,0,0,1,26.58,9Zm-5.65,8.83a2,2,0,0,1,.28.86,2.07,2.07,0,0,1-.4,1.14,1.83,1.83,0,0,1-.93.74,1.35,1.35,0,0,1-1-.07A9,9,0,0,1,20.93,17.81ZM18.59,21.4l0-.12a2.25,2.25,0,0,0,2.82-.64c.73-.81,1.29-2.74.22-3.53l.25-.22a9.48,9.48,0,0,0,2.63-4.12c0-.13.08-.26.13-.38a1.85,1.85,0,0,0,2.45-.64,2.8,2.8,0,0,0,.15-3.45,7.81,7.81,0,0,1,1.15-.81c2.13-1.26,3.92.1,5.27,1.75a11.47,11.47,0,0,0,3.18,2.51,2,2,0,0,0,.4,3,2.72,2.72,0,0,0,3.53-.91c2,1.2,3.94,2.73,4.32,4.85-1.72-1.52-6-1.41-7.71-1.31a34.22,34.22,0,0,0-6.32,1v0c-2.08-3.11-7.16-1.6-6.29,2.3-.54.25-1.06.52-1.58.81-1.6.87-3.74,2.2-4.56,3.92A8.2,8.2,0,0,1,18.59,21.4Zm11.48-2.74a33.22,33.22,0,0,0-4.62,1.7A2.55,2.55,0,0,1,30.07,18.66ZM20.34,28a2,2,0,0,1-.69,2A1.15,1.15,0,0,1,17.9,30,8.08,8.08,0,0,1,20.34,28Zm-8.74,10c.72-.79,1.39-1.62,2-2.45.26.32.59.51.62,1A2,2,0,0,1,13.7,38c-.57.71-1.68,1.32-2.28.33l0-.06ZM15,43.23a1.79,1.79,0,0,1,1.26-1.51,1.58,1.58,0,0,1,1.55.9A25,25,0,0,0,15,43.23ZM15.36,47A14.22,14.22,0,0,1,16.51,44a12.18,12.18,0,0,1,2.66-.52l.67.14c-.27,1.27.1,2.66-.31,3.89a6.62,6.62,0,0,1-.93-1.64.38.38,0,0,0-.66,0,10.83,10.83,0,0,0-.49,1.1,3.85,3.85,0,0,1-.16-.91c0-.3-.42-.54-.65-.27A5.36,5.36,0,0,1,15.36,47ZM20,48.26c.71-1.42.3-3,.62-4.51a16,16,0,0,1,3.57,1.07l1,.45a37,37,0,0,0-2.28,4,18.91,18.91,0,0,0-2.12,7.55,11,11,0,0,1-1.24-2.73,17.23,17.23,0,0,1-.45-5.94,2.16,2.16,0,0,0,.43.29A.37.37,0,0,0,20,48.26Zm2.3,14.5c-.18,1.29-1.72,1.64-2.76,1.41-2.57-.56-3.44-4.24-3.81-6.4-.6-3.57.28-7,.56-10.55l.34-.34a5.66,5.66,0,0,0,.4,1.18c.13.29.52.21.67,0a6.07,6.07,0,0,0,.57-1.14l.12.24a.5.5,0,0,0-.05.13,16.9,16.9,0,0,0,.81,8.57,17,17,0,0,0,2.23,3.76A4.26,4.26,0,0,1,22.32,62.76Zm3.93-7.57c-.09,2.12.58,7.71-2.83,7.54a5.37,5.37,0,0,0-.91-3.27c-.25-.41-.5-.79-.75-1.17a.48.48,0,0,0,0-.22,20.53,20.53,0,0,1,2.83-9.87c.45-.87,1-1.7,1.48-2.53a6.77,6.77,0,0,0,2.72.53h.11A23.78,23.78,0,0,0,26.25,55.19Zm2.2-10.11c-1.71.05-3.14-1.08-4.67-1.66a12.27,12.27,0,0,0-5.1-.89A2.59,2.59,0,0,0,16,41c-1.17.18-1.68,1.43-1.8,2.48l-1.1.27c-1.5.34-3.88.25-3.87-1.76a4.71,4.71,0,0,1,1.57-3c.87,1.35,2.52.91,3.51-.14a3.32,3.32,0,0,0,.91-2.06,2.06,2.06,0,0,0-1-1.87c.74-1,1.46-2,2.19-3,.3-.41.64-.85,1-1.3A1.86,1.86,0,0,0,20,31a2.82,2.82,0,0,0,1.22-3.24,4.55,4.55,0,0,1,.63-.09c1.53-.07,2.29,1.29,2.74,2.89a1.6,1.6,0,0,0-1.49,1.81,2.25,2.25,0,0,0,2.3,2.11l.06.22c.71,2.36,2.41,4,3.71,6,.1.15.19.29.27.44a1.46,1.46,0,0,0-.95,1.85,2,2,0,0,0,1.8,1.45A2.13,2.13,0,0,1,28.45,45.08ZM25.2,33.43a1.31,1.31,0,0,1-1.18-1,.91.91,0,0,1,.76-1.17C25,32,25.08,32.75,25.2,33.43Zm-.27-5a18.4,18.4,0,0,0,3.66-.6,6.88,6.88,0,0,0,2.4-1,36.17,36.17,0,0,1-.26,4A29.79,29.79,0,0,1,29,38.45c-.39-.49-.78-1-1.12-1.48a12,12,0,0,1-1.69-4.43C25.87,31.23,25.73,29.56,24.93,28.4Zm4.94,14.89a1.1,1.1,0,0,1-.48-.56c-.19-.49-.1-.94.38-1.13a7.11,7.11,0,0,1,.63,1.72s0,0,0,0A.87.87,0,0,1,29.87,43.29Zm4-10a26.2,26.2,0,0,1-2.78,8.58,10.94,10.94,0,0,0-1.4-2.37l.06-.13a30,30,0,0,0,2.05-8.86c.28-2.6.61-5.87-.67-8.29a4.82,4.82,0,0,1,1.07-.38,4.36,4.36,0,0,1,1.07-.1c.16,1.88.59,3.74.73,5.63A32.54,32.54,0,0,1,33.91,33.24Zm6.47-8.69a27.34,27.34,0,0,1-5.49.71,17.48,17.48,0,0,0-.76-3.49,10.17,10.17,0,0,1,1.44.38c.46.15.71-.52.32-.76C34,20.2,30,20.46,29,22.75c-.13.29.16.69.47.48s.67-.46,1-.66a15.42,15.42,0,0,1,.49,3,11.5,11.5,0,0,1-3.29,1.34c-1.25.24-2.53.26-3.78.44-1.49-1.07-3.1-.7-4.58.29C18.65,25,22,23.22,23.94,22.16a30.7,30.7,0,0,1,10.41-3.44c1.7-.25,11.45-1.52,10.42,2.25C44.28,22.77,42,24,40.38,24.55Z" transform="translate(-8.26 -6)"/><path class="cls-1" d="M65.21,54a13.15,13.15,0,0,1-.9-1.85c-.18-.42-.3-.86-.83-.88a6,6,0,0,0-1.95.73c-.79.33-1.59.65-2.38,1a24.51,24.51,0,0,0-2.31-2,8,8,0,0,0-6.41-1.87,6.14,6.14,0,0,0-4.67,3.66,3.5,3.5,0,0,0,0,1.79,44.27,44.27,0,0,0-7.28,3.82c-2.16,1.42-4.2,3.55-4.05,6.31a6.75,6.75,0,0,0,.37,1.86c-.84.37-1.73,1.09-1.26,2.07a1.39,1.39,0,0,0,1.11.68,2.25,2.25,0,0,0,1.43-.38,5.75,5.75,0,0,0,3.79,2.25,14.75,14.75,0,0,0,6.39-1.06,33.57,33.57,0,0,0,6.35-2.94,2.45,2.45,0,0,0,1.07.76c1.94.73,4.25-.07,5.81-1.29,2.65-2.08,3.37-7.63,1.66-10.74A11.48,11.48,0,0,0,65,54.72.5.5,0,0,0,65.21,54ZM62.75,52.8a3.35,3.35,0,0,0,.48-.18,2.91,2.91,0,0,0,.21.38A8,8,0,0,0,64,54a16.53,16.53,0,0,1-1.79.63c-.5.15-1,.22-1.53.42A6.58,6.58,0,0,0,60,54C60.93,53.63,61.84,53.21,62.75,52.8ZM34.8,68.44a.68.68,0,0,1-.35,0,.7.7,0,0,1-.15-.12.25.25,0,0,1,0-.18.61.61,0,0,1,.12-.3,1.56,1.56,0,0,1,.72-.5c.13.29.29.57.45.85A1.78,1.78,0,0,1,34.8,68.44ZM41.06,70c-3.17.18-5.48-3-5.3-6,.14-2.37,2.74-4.25,4.54-5.41s3.91-2,5.76-3.22a2.26,2.26,0,0,0,.64.81A2.5,2.5,0,0,0,48.57,60a1.75,1.75,0,0,0,1.53,2.84,2,2,0,0,0,2.31,2.88,1.46,1.46,0,0,0-.11.41C48.67,67.78,45.14,69.76,41.06,70ZM60.3,63.74A5.19,5.19,0,0,1,56.89,67c-1.1.36-4.34.42-3.52-1.61.1-.23-.14-.39-.35-.35a.26.26,0,0,0-.2-.05c-1.06.07-3-.79-1.88-2.15a.36.36,0,0,0-.23-.61c-1.28-.18-2-1.15-1.28-2.35a.3.3,0,0,0,0-.4.42.42,0,0,0-.39-.32,1.78,1.78,0,0,1-1.12-2.88.57.57,0,0,0-.37-1c-.39,0-1.63-1.66.34-3.65A5.61,5.61,0,0,1,53,50.28a9.84,9.84,0,0,1,4.27,2.57c.85.78,1.55,1.83,2.42,2.61a.19.19,0,0,0,0,.07A10.52,10.52,0,0,1,60.3,63.74Z" transform="translate(-8.26 -6)"/></svg>